<?xml version="1.0" encoding="UTF-8"?>
<svg id="Layer_2" data-name="Layer 2" xmlns="http://www.w3.org/2000/svg" viewBox="0 0 602.7 441.8">
  <defs>
    <style>
      .cls-1, .cls-2, .cls-3 {
        fill: #fff;
      }

      .cls-2 {
        font-family: Poppins-Regular, Poppins;
        font-size: 25px;
      }

      .cls-4, .cls-3 {
        font-family: Poppins-Bold, Poppins;
        font-size: 38px;
        font-weight: 700;
        isolation: isolate;
      }
    </style>
  </defs>
  <g id="Layer_1-2" data-name="Layer 1">
    <g>
      <g>
        <g>
          <path d="M364.1,122.8v1.8c0,23-6.4,40.7-19.2,53.2-12.8,12.6-30.6,18.8-53.6,18.8h-28.8v-22.4h-60.7v75h93.4c26,0,48.9-5.2,68.7-15.6,19.8-10.4,35-25.1,45.8-44s16.1-40.6,16.1-65v-1.8h-61.7Z"/>
          <path d="M442,73.8c11.3-12.7,26.1-19.1,44.4-19.1,11.3,0,21.5,2.7,30.4,8,8.9,5.3,15.8,13.1,20.7,23.3h65.2c-6.9-26.4-20.7-47.2-41.3-62.5-20.6-15.3-45.3-22.9-74.2-22.9-23.6,0-44.7,5.3-63.3,15.8-18.6,10.5-33.1,25.2-43.5,44.1-10.1,18.3-15.3,39.1-15.6,62.4h60.4c.2-20.5,5.9-36.8,16.8-49.1h0Z"/>
        </g>
        <g>
          <path class="cls-1" d="M516.8,186.9c-8.9,5.3-19,8-30.4,8-18.3,0-33.1-6.4-44.4-19.1-11.3-12.7-17-29.7-17-51v-2h-60.4v2c0,24.1,5.2,45.5,15.6,64.2s24.9,33.4,43.5,43.9,39.7,15.8,63.3,15.8c28.9,0,53.7-7.6,74.3-22.7s34.3-35.9,41.3-62.3h-65.2c-4.8,10.1-11.7,17.9-20.6,23.2Z"/>
          <path class="cls-1" d="M409.7,59.5c-10.8-18.8-26-33.4-45.6-43.8C344.4,5.2,321.5,0,295.2,0h-93.4V51.8h89.5c23,0,40.8,6.4,53.6,19.2,12.4,12.4,18.8,29.7,19.1,51.8h61.8c-.2-23.9-5.6-45-16.1-63.3Z"/>
          <path class="cls-1" d="M87.3,53c9-1,15.6-1,18-1,31.3-.2,44.3-.2,53.5-.2h43.3V0H89.4C62.6,0,41.7,6.5,25.3,19.3S.7,49.9,.7,72.6c0,15.3,3.6,27.7,10.7,37.1,7.2,9.5,15.7,16.7,25.6,21.5,9.9,4.9,22.8,9.7,38.5,14.6,10.8,3.2,19.2,6.1,25.1,8.7,5.9,2.6,10.8,5.8,14.9,9.7,4,3.9,6.1,8.9,6.1,14.9,0,7.2-2.5,12.8-7.6,16.8-5.1,4.1-12,6.1-20.8,6.1s-15.5-2.4-20.8-7.1c-5.3-4.7-8.4-11.6-9.3-20.6H0c.5,16,4.9,29.6,13.3,40.9,8.4,11.3,19.7,19.9,33.8,25.7s30,8.7,47.8,8.7,34.1-3.4,47.5-10.1c13.4-6.7,23.6-15.7,30.7-27.1,7-11.3,10.6-23.9,10.6-37.8,0-14.6-3.6-26.5-10.7-35.7s-15.6-16.3-25.5-21.2c-9.8-4.9-22.6-9.9-38.3-15.3-15.7-5.1-25.3-9.8-32.7-14.2-7.4-4.4-11.1-10.5-11.1-18.4,0-7.2,.9-7.8,2.9-10.8,3.2-4.8,12-5.2,19-6h0Z"/>
        </g>
        <text class="cls-3" transform="translate(.71 316.74)"><tspan x="0" y="0" xml:space="preserve">SUSTAINABLE  </tspan></text>
        <text class="cls-4" transform="translate(277.27 316.74)"><tspan x="0" y="0" xml:space="preserve">DEBT  </tspan></text>
        <text class="cls-3" transform="translate(391.34 316.74)"><tspan x="0" y="0">COALITION</tspan></text>
      </g>
      <text class="cls-2" transform="translate(17.04 367.5)"><tspan x="0" y="0">A space for sovereign-sovereign consultation </tspan><tspan x="5.55" y="30">and collaboration at the intersection of debt, </tspan><tspan x="116.76" y="60">climate, and development.</tspan></text>
    </g>
  </g>
</svg>