<?xml version="1.0" encoding="UTF-8"?>
<svg id="Layer_2" data-name="Layer 2" xmlns="http://www.w3.org/2000/svg" viewBox="0 0 1452.18 361.78">
  <defs>
    <style>
      .cls-1, .cls-2 {
        fill: #14453d;
      }

      .cls-2 {
        font-family: Poppins-Regular, Poppins;
        font-size: 47px;
        letter-spacing: 0em;
      }

      .cls-3 {
        font-family: Poppins-Bold, Poppins;
        font-size: 38px;
        font-weight: 700;
        letter-spacing: 0em;
      }
    </style>
  </defs>
  <g id="Layer_1-2" data-name="Layer 1">
    <g>
      <path d="M364.06,122.78c0,.61,.03,1.21,.03,1.83,0,22.96-6.39,40.71-19.17,53.25-12.78,12.55-30.65,18.81-53.61,18.81h-28.75v-22.43h-60.71v74.97h93.37c26.03,0,48.93-5.2,68.69-15.62,19.76-10.41,35.02-25.08,45.79-44.02,10.77-18.93,16.15-40.59,16.15-64.96,0-.61-.02-1.22-.03-1.83h-61.78Z"/>
      <path d="M442.05,73.76c11.33-12.72,26.14-19.08,44.42-19.08,11.33,0,21.45,2.66,30.36,7.98,8.9,5.32,15.79,13.07,20.65,23.25h65.24c-6.94-26.37-20.71-47.19-41.29-62.46-20.59-15.27-45.34-22.9-74.26-22.9-23.6,0-44.71,5.26-63.33,15.79-18.62,10.53-33.14,25.22-43.55,44.07-10.12,18.33-15.31,39.13-15.59,62.38h60.38c.35-20.35,5.99-36.7,16.97-49.02Z"/>
    </g>
    <g>
      <path class="cls-1" d="M516.83,186.88c-8.91,5.32-19.03,7.98-30.36,7.98-18.28,0-33.08-6.36-44.42-19.08-11.34-12.72-17-29.72-17-51.01,0-.67,.02-1.32,.03-1.99h-60.38c0,.66-.03,1.32-.03,1.99,0,24.06,5.21,45.46,15.62,64.19,10.41,18.74,24.92,33.37,43.55,43.9,18.62,10.53,39.73,15.79,63.33,15.79,28.91,0,53.67-7.58,74.26-22.73,20.59-15.15,34.35-35.92,41.29-62.29h-65.24c-4.86,10.18-11.74,17.93-20.65,23.25Z"/>
      <path class="cls-1" d="M409.71,59.46c-10.77-18.81-25.98-33.43-45.62-43.84C344.44,5.21,321.49,0,295.22,0h-93.37V51.78h60.71v.05h28.75c22.95,0,40.83,6.39,53.61,19.17,12.44,12.44,18.8,29.71,19.14,51.78h61.78c-.26-23.86-5.63-44.97-16.13-63.32Z"/>
      <path class="cls-1" d="M87.29,53.02c8.99-1,15.58-.99,17.97-1,31.27-.15,44.29-.21,53.54-.24h0c11.29-.03,16.97,0,43.3,0V.02h-55.91c-20.82,0-30.02,.03-56.81,.03S41.69,6.47,25.29,19.31C8.89,32.15,.69,49.9,.69,72.57c0,15.27,3.58,27.65,10.74,37.13,7.16,9.49,15.7,16.66,25.64,21.51,9.93,4.86,22.75,9.72,38.46,14.57,10.85,3.24,19.23,6.13,25.12,8.68,5.89,2.55,10.85,5.79,14.9,9.72,4.04,3.94,6.06,8.91,6.06,14.92,0,7.17-2.54,12.79-7.62,16.83-5.08,4.05-12.01,6.07-20.79,6.07s-15.48-2.37-20.79-7.11c-5.32-4.74-8.43-11.62-9.35-20.65H0c.46,15.96,4.9,29.61,13.34,40.95,8.43,11.34,19.69,19.9,33.78,25.68,14.09,5.79,30.02,8.67,47.81,8.67s34.07-3.35,47.46-10.06c13.39-6.71,23.61-15.73,30.66-27.07,7.04-11.33,10.57-23.94,10.57-37.82,0-14.57-3.58-26.49-10.74-35.74-7.16-9.25-15.65-16.31-25.46-21.17-9.82-4.86-22.58-9.94-38.28-15.27-15.71-5.09-25.26-9.83-32.65-14.23-7.39-4.39-11.09-10.52-11.09-18.39,0-7.17,.92-7.78,2.92-10.78,3.22-4.84,12.02-5.23,18.97-6Z"/>
    </g>
    <text class="cls-3" transform="translate(.71 316.74)"><tspan class="cls-1" x="0" y="0" xml:space="preserve">SUSTAINABLE  </tspan><tspan x="276.56" y="0" xml:space="preserve">DEBT  </tspan><tspan class="cls-1" x="390.63" y="0">COALITION</tspan></text>
    <text class="cls-2" transform="translate(660.14 79.56)"><tspan x="0" y="0">A space for sovereign-sovereign </tspan><tspan x="0" y="57">consultation and collaboration</tspan><tspan x="0" y="114">at the intersection of</tspan><tspan x="0" y="171">debt, climate, and development.</tspan></text>
  </g>
</svg>